<svg width="14" height="22" viewBox="0 0 14 22" fill="none" xmlns="http://www.w3.org/2000/svg">
<path d="M4 17C4.55228 17 5 16.5523 5 16C5 15.4477 4.55228 15 4 15C3.44772 15 3 15.4477 3 16C3 16.5523 3.44772 17 4 17Z" fill="black"/>
<path d="M10 17C10.5523 17 11 16.5523 11 16C11 15.4477 10.5523 15 10 15C9.44771 15 9 15.4477 9 16C9 16.5523 9.44771 17 10 17Z" fill="black"/>
<path d="M12.25 9.1C12.23 9.08 12.22 9.06 12.2 9.03C11.82 8.51 11.28 8.5 11.28 8.5H2.72C2.72 8.5 2.18 8.51 1.8 9.04C1.78 9.06 1.77 9.08 1.75 9.1C1.68 9.21 1.61 9.34 1.56 9.5C1.34 10.16 0.82 11.72 0 14.19V20.69C0 21.14 0.35 21.5 0.78 21.5H1.22C1.65 21.5 2 21.14 2 20.69V19.5H12V20.69C12 21.14 12.34 21.5 12.78 21.5H13.22C13.65 21.5 14 21.14 14 20.69V14.19C13.18 11.73 12.66 10.16 12.44 9.5C12.39 9.34 12.32 9.21 12.25 9.1ZM3.33 10.5H10.67L10.9 11.19L11.33 12.5H2.67L3.33 10.5ZM12 17.5H2V14.5H12V17.5Z" fill="black"/>
<path d="M5.83 2.5C5.41 1.33 4.3 0.5 3 0.5C1.34 0.5 0 1.84 0 3.5C0 5.15 1.34 6.5 3 6.5C4.3 6.5 5.41 5.66 5.83 4.5H11V6.5H13V4.5H14V2.5H5.83ZM3 4.5C2.45 4.5 2 4.05 2 3.5C2 2.95 2.45 2.5 3 2.5C3.55 2.5 4 2.95 4 3.5C4 4.05 3.55 4.5 3 4.5Z" fill="black"/>
</svg>
