<svg width="24" height="20" viewBox="0 0 24 20" fill="none" xmlns="http://www.w3.org/2000/svg">
<path d="M12.222 17.8549C12.042 18.0349 11.722 18.0649 11.512 17.8549C11.332 17.6749 11.302 17.3549 11.512 17.1449L14.902 13.7549L13.492 12.3449L10.102 15.7349C9.912 15.9349 9.592 15.9249 9.392 15.7349C9.182 15.5249 9.212 15.2049 9.392 15.0249L12.782 11.6349L11.372 10.2249L7.982 13.6149C7.802 13.7949 7.482 13.8249 7.272 13.6149C7.082 13.4249 7.082 13.1049 7.272 12.9049L10.662 9.51488L9.242 8.10488L5.852 11.4949C5.672 11.6749 5.352 11.7049 5.142 11.4949C4.952 11.2949 4.952 10.9849 5.142 10.7849L9.522 6.40488L11.392 8.26488C12.342 9.21488 13.982 9.20488 14.932 8.26488C15.912 7.28488 15.912 5.70488 14.932 4.72488L13.072 2.86488L13.352 2.58488C14.132 1.80488 15.402 1.80488 16.182 2.58488L20.422 6.82488C21.202 7.60488 21.202 8.87488 20.422 9.65488L12.222 17.8549ZM21.832 11.0749C23.392 9.51488 23.392 6.98488 21.832 5.41488L17.592 1.17488C16.032 -0.385117 13.502 -0.385117 11.932 1.17488L11.652 1.45488L11.372 1.17488C9.812 -0.385117 7.282 -0.385117 5.712 1.17488L2.172 4.71488C0.751999 6.13488 0.621999 8.34488 1.772 9.90488L3.222 8.45488C2.832 7.70488 2.962 6.75488 3.592 6.12488L7.132 2.58488C7.912 1.80488 9.182 1.80488 9.962 2.58488L13.522 6.14488C13.702 6.32488 13.732 6.64488 13.522 6.85488C13.312 7.06488 12.992 7.03488 12.812 6.85488L9.522 3.57488L3.722 9.36488C2.742 10.3349 2.742 11.9249 3.722 12.9049C4.112 13.2949 4.612 13.5349 5.142 13.6049C5.212 14.1249 5.442 14.6249 5.842 15.0249C6.242 15.4249 6.742 15.6549 7.262 15.7249C7.332 16.2449 7.562 16.7449 7.962 17.1449C8.362 17.5449 8.862 17.7749 9.382 17.8449C9.452 18.3849 9.692 18.8749 10.082 19.2649C10.552 19.7349 11.182 19.9949 11.852 19.9949C12.522 19.9949 13.152 19.7349 13.622 19.2649L21.832 11.0749Z" fill="black"/>
</svg>
