<svg width="24" height="24" viewBox="0 0 24 24" fill="none" xmlns="http://www.w3.org/2000/svg">
<path d="M19.6485 9.29488L14.8085 8.87488L12.9185 4.42488C12.5785 3.61488 11.4185 3.61488 11.0785 4.42488L9.18853 8.88488L4.35853 9.29488C3.47853 9.36488 3.11853 10.4649 3.78853 11.0449L7.45853 14.2249L6.35853 18.9449C6.15853 19.8049 7.08853 20.4849 7.84853 20.0249L11.9985 17.5249L16.1485 20.0349C16.9085 20.4949 17.8385 19.8149 17.6385 18.9549L16.5385 14.2249L20.2085 11.0449C20.8785 10.4649 20.5285 9.36488 19.6485 9.29488ZM11.9985 15.6549L8.23853 17.9249L9.23853 13.6449L5.91853 10.7649L10.2985 10.3849L11.9985 6.35488L13.7085 10.3949L18.0885 10.7749L14.7685 13.6549L15.7685 17.9349L11.9985 15.6549Z" fill="#DB1F26"/>
</svg>
