<svg width="20" height="18" viewBox="0 0 20 18" fill="none" xmlns="http://www.w3.org/2000/svg">
<path d="M19 9.22C19 3.73 14.74 0 10 0C5.31 0 1 3.65 1 9.28C0.4 9.62 0 10.26 0 11V13C0 14.1 0.9 15 2 15C2.55 15 3 14.55 3 14V9.19C3 5.36 5.95 2.01 9.78 1.9C13.74 1.78 17 4.96 17 8.9V16H10C9.45 16 9 16.45 9 17C9 17.55 9.45 18 10 18H17C18.1 18 19 17.1 19 16V14.78C19.59 14.47 20 13.86 20 13.14V10.84C20 10.14 19.59 9.53 19 9.22Z" fill="black"/>
<path d="M7 11C7.55228 11 8 10.5523 8 10C8 9.44771 7.55228 9 7 9C6.44772 9 6 9.44771 6 10C6 10.5523 6.44772 11 7 11Z" fill="black"/>
<path d="M13 11C13.5523 11 14 10.5523 14 10C14 9.44771 13.5523 9 13 9C12.4477 9 12 9.44771 12 10C12 10.5523 12.4477 11 13 11Z" fill="black"/>
<path d="M16 8.03C15.52 5.18 13.04 3 10.05 3C7.02 3 3.76 5.51 4.02 9.45C6.49 8.44 8.35 6.24 8.88 3.56C10.19 6.19 12.88 8 16 8.03Z" fill="black"/>
</svg>
