<svg width="22" height="20" viewBox="0 0 22 20" fill="none" xmlns="http://www.w3.org/2000/svg">
<path d="M21.47 4.95C21 4.71 20.51 4.51 20 4.34V16.37C18.86 15.96 17.69 15.75 16.5 15.75C14.6 15.75 12.72 16.29 11 17.33V5.23C9.38 4.3 7.51 3.75 5.5 3.75C3.71 3.75 2.02 4.19 0.53 4.95C0.2 5.11 0 5.46 0 5.83V17.91C0 18.49 0.47 18.9 1 18.9C1.16 18.9 1.32 18.86 1.48 18.78C2.69 18.15 4.05 17.75 5.5 17.75C7.57 17.75 9.48 18.57 11 19.75C12.52 18.57 14.43 17.75 16.5 17.75C17.95 17.75 19.31 18.15 20.52 18.79C20.68 18.87 20.84 18.91 21 18.91C21.52 18.91 22 18.5 22 17.92V5.83C22 5.46 21.8 5.11 21.47 4.95ZM9 16.37C7.86 15.96 6.69 15.75 5.5 15.75C4.31 15.75 3.14 15.96 2 16.37V6.46C3.11 5.99 4.28 5.75 5.5 5.75C6.7 5.75 7.89 6 9 6.47V16.37ZM18 0.25L13 5.25V14.75L18 10.25V0.25Z" fill="black"/>
</svg>
