<svg width="24" height="24" viewBox="0 0 24 24" fill="none" xmlns="http://www.w3.org/2000/svg">
<path d="M21 8V16C21 17.3261 20.4732 18.5979 19.5355 19.5355C18.5979 20.4732 17.3261 21 16 21H8C6.67392 21 5.40215 20.4732 4.46447 19.5355C3.52678 18.5979 3 17.3261 3 16V8C3 6.67392 3.52678 5.40215 4.46447 4.46447C5.40215 3.52678 6.67392 3 8 3H16C17.3261 3 18.5979 3.52678 19.5355 4.46447C20.4732 5.40215 21 6.67392 21 8Z" stroke="black" stroke-width="1.5" stroke-linecap="round" stroke-linejoin="round"/>
<path d="M10 12C9.40666 12 8.82664 12.1759 8.33329 12.5056C7.83994 12.8352 7.45543 13.3038 7.22836 13.8519C7.0013 14.4001 6.94189 15.0033 7.05765 15.5853C7.1734 16.1672 7.45912 16.7018 7.87868 17.1213C8.29824 17.5409 8.83279 17.8266 9.41473 17.9424C9.99667 18.0581 10.5999 17.9987 11.1481 17.7716C11.6962 17.5446 12.1648 17.1601 12.4944 16.6667C12.8241 16.1734 13 15.5933 13 15V6C13.333 7 14.6 9 17 9" stroke="black" stroke-width="1.5" stroke-linecap="round" stroke-linejoin="round"/>
</svg>
