<svg width="24" height="24" viewBox="0 0 24 24" fill="none" xmlns="http://www.w3.org/2000/svg">
<g clip-path="url(#clip0_2091_6153)">
<path d="M21 8V16C21 17.3261 20.4732 18.5979 19.5355 19.5355C18.5979 20.4732 17.3261 21 16 21H8C6.67392 21 5.40215 20.4732 4.46447 19.5355C3.52678 18.5979 3 17.3261 3 16V8C3 6.67392 3.52678 5.40215 4.46447 4.46447C5.40215 3.52678 6.67392 3 8 3H16C17.3261 3 18.5979 3.52678 19.5355 4.46447C20.4732 5.40215 21 6.67392 21 8Z" stroke="black" stroke-width="1.5" stroke-linecap="round" stroke-linejoin="round"/>
<path d="M7.30494 7.39746L11.1018 12.4742L7.28096 16.6018H8.14088L11.486 12.988L14.1888 16.6018H17.1151L13.1046 11.2395L16.661 7.39746H15.8011L12.7204 10.7257L10.2313 7.39746H7.30494ZM8.56951 8.03088H9.91387L15.8503 15.9683H14.506L8.56951 8.03088Z" fill="black"/>
<path d="M-480.67 -456.749L-94.2799 59.891L-483.11 479.941H-395.6L-55.1799 112.181L219.87 479.941H517.67L109.54 -65.759L471.46 -456.749H383.95L70.4401 -118.049L-182.87 -456.749H-480.67ZM-351.98 -392.289H-215.17L388.96 415.471H252.15L-351.98 -392.289Z" fill="black"/>
</g>
<defs>
<clipPath id="clip0_2091_6153">
<rect width="24" height="24" fill="white"/>
</clipPath>
</defs>
</svg>
